<mxfile host="Electron" agent="Mozilla/5.0 (Windows NT 10.0; Win64; x64) AppleWebKit/537.36 (KHTML, like Gecko) draw.io/24.7.5 Chrome/126.0.6478.183 Electron/31.3.0 Safari/537.36" version="24.7.5">
  <diagram name="第 1 页" id="KkmhDB_wpOJ6g4vFTwdy">
    <mxGraphModel dx="1172" dy="2005" grid="1" gridSize="10" guides="1" tooltips="1" connect="1" arrows="1" fold="1" page="1" pageScale="1" pageWidth="827" pageHeight="1169" math="0" shadow="0">
      <root>
        <mxCell id="0" />
        <mxCell id="1" parent="0" />
        <mxCell id="SBNJqJgTxC89wJ4yQlr1-2" value="" style="rounded=0;whiteSpace=wrap;html=1;fillColor=#dae8fc;strokeColor=#6c8ebf;" parent="1" vertex="1">
          <mxGeometry x="100" y="230" width="570" height="390" as="geometry" />
        </mxCell>
        <mxCell id="SBNJqJgTxC89wJ4yQlr1-1" value="UI" style="rounded=1;whiteSpace=wrap;html=1;fillColor=#60a917;fontColor=#ffffff;strokeColor=#2D7600;" parent="1" vertex="1">
          <mxGeometry x="200" y="260" width="400" height="60" as="geometry" />
        </mxCell>
        <mxCell id="SBNJqJgTxC89wJ4yQlr1-3" value="&lt;b&gt;&lt;font style=&quot;font-size: 40px;&quot;&gt;多层架构&lt;/font&gt;&lt;/b&gt;" style="text;html=1;align=center;verticalAlign=middle;resizable=0;points=[];autosize=1;strokeColor=none;fillColor=none;" parent="1" vertex="1">
          <mxGeometry x="275" y="143" width="180" height="60" as="geometry" />
        </mxCell>
        <mxCell id="SBNJqJgTxC89wJ4yQlr1-4" value="" style="rounded=1;whiteSpace=wrap;html=1;fillColor=#d80073;fontColor=#ffffff;strokeColor=#A50040;" parent="1" vertex="1">
          <mxGeometry x="200" y="345.5" width="400" height="110" as="geometry" />
        </mxCell>
        <mxCell id="SBNJqJgTxC89wJ4yQlr1-5" value="" style="rounded=1;whiteSpace=wrap;html=1;fillColor=#1ba1e2;fontColor=#ffffff;strokeColor=#006EAF;" parent="1" vertex="1">
          <mxGeometry x="200" y="480" width="400" height="60" as="geometry" />
        </mxCell>
        <mxCell id="bXTZh-DOCNGgYMy8ahr3-1" value="&lt;span style=&quot;text-wrap: wrap;&quot;&gt;&lt;b style=&quot;&quot;&gt;&lt;font color=&quot;#ff0080&quot;&gt;Logic&lt;/font&gt;&lt;/b&gt;&lt;/span&gt;" style="text;html=1;align=center;verticalAlign=middle;resizable=0;points=[];autosize=1;strokeColor=none;fillColor=none;" parent="1" vertex="1">
          <mxGeometry x="15" y="385.5" width="60" height="30" as="geometry" />
        </mxCell>
        <mxCell id="bXTZh-DOCNGgYMy8ahr3-2" value="&lt;span style=&quot;text-wrap: wrap;&quot;&gt;&lt;b style=&quot;&quot;&gt;&lt;font color=&quot;#ff0080&quot;&gt;UI&lt;/font&gt;&lt;/b&gt;&lt;/span&gt;" style="text;html=1;align=center;verticalAlign=middle;resizable=0;points=[];autosize=1;strokeColor=none;fillColor=none;" parent="1" vertex="1">
          <mxGeometry x="25" y="275" width="40" height="30" as="geometry" />
        </mxCell>
        <mxCell id="bXTZh-DOCNGgYMy8ahr3-3" value="" style="rounded=1;whiteSpace=wrap;html=1;fillColor=#1ba1e2;fontColor=#ffffff;strokeColor=#006EAF;" parent="1" vertex="1">
          <mxGeometry x="200" y="540" width="400" height="60" as="geometry" />
        </mxCell>
        <mxCell id="bXTZh-DOCNGgYMy8ahr3-5" value="&lt;b style=&quot;&quot;&gt;&lt;font color=&quot;#3333ff&quot;&gt;Effect&lt;/font&gt;&lt;/b&gt;" style="rounded=1;whiteSpace=wrap;html=1;" parent="1" vertex="1">
          <mxGeometry x="220" y="356" width="70" height="39.5" as="geometry" />
        </mxCell>
        <mxCell id="bXTZh-DOCNGgYMy8ahr3-6" value="&lt;b style=&quot;&quot;&gt;&lt;font color=&quot;#3333ff&quot;&gt;Audio&lt;/font&gt;&lt;/b&gt;" style="rounded=1;whiteSpace=wrap;html=1;" parent="1" vertex="1">
          <mxGeometry x="315" y="356" width="70" height="39.5" as="geometry" />
        </mxCell>
        <mxCell id="bXTZh-DOCNGgYMy8ahr3-7" value="&lt;b style=&quot;&quot;&gt;&lt;font color=&quot;#3333ff&quot;&gt;Video&lt;/font&gt;&lt;/b&gt;" style="rounded=1;whiteSpace=wrap;html=1;" parent="1" vertex="1">
          <mxGeometry x="413.5" y="356" width="70" height="39.5" as="geometry" />
        </mxCell>
        <mxCell id="bXTZh-DOCNGgYMy8ahr3-8" value="&lt;b style=&quot;&quot;&gt;&lt;font color=&quot;#3333ff&quot;&gt;Skin&lt;/font&gt;&lt;/b&gt;" style="rounded=1;whiteSpace=wrap;html=1;" parent="1" vertex="1">
          <mxGeometry x="510" y="356" width="70" height="39.5" as="geometry" />
        </mxCell>
        <mxCell id="bXTZh-DOCNGgYMy8ahr3-9" value="&lt;b style=&quot;&quot;&gt;&lt;font color=&quot;#3333ff&quot;&gt;Theme&lt;/font&gt;&lt;/b&gt;" style="rounded=1;whiteSpace=wrap;html=1;" parent="1" vertex="1">
          <mxGeometry x="220" y="407" width="70" height="39.5" as="geometry" />
        </mxCell>
        <mxCell id="bXTZh-DOCNGgYMy8ahr3-10" value="&lt;font color=&quot;#3333ff&quot;&gt;&lt;b&gt;Signal&lt;/b&gt;&lt;/font&gt;" style="rounded=1;whiteSpace=wrap;html=1;" parent="1" vertex="1">
          <mxGeometry x="315" y="407" width="70" height="39.5" as="geometry" />
        </mxCell>
        <mxCell id="bXTZh-DOCNGgYMy8ahr3-11" value="&lt;font color=&quot;#3333ff&quot;&gt;&lt;b&gt;Input&lt;/b&gt;&lt;/font&gt;" style="rounded=1;whiteSpace=wrap;html=1;" parent="1" vertex="1">
          <mxGeometry x="413.5" y="407" width="70" height="39.5" as="geometry" />
        </mxCell>
        <mxCell id="bXTZh-DOCNGgYMy8ahr3-12" value="&lt;font color=&quot;#3333ff&quot;&gt;&lt;b&gt;Others&lt;/b&gt;&lt;/font&gt;" style="rounded=1;whiteSpace=wrap;html=1;" parent="1" vertex="1">
          <mxGeometry x="510" y="407" width="70" height="39.5" as="geometry" />
        </mxCell>
        <mxCell id="bXTZh-DOCNGgYMy8ahr3-13" value="&lt;span style=&quot;text-wrap: wrap;&quot;&gt;&lt;b style=&quot;&quot;&gt;&lt;font color=&quot;#ff0080&quot;&gt;Framwork&lt;/font&gt;&lt;/b&gt;&lt;/span&gt;" style="text;html=1;align=center;verticalAlign=middle;resizable=0;points=[];autosize=1;strokeColor=none;fillColor=none;" parent="1" vertex="1">
          <mxGeometry x="15" y="495" width="80" height="30" as="geometry" />
        </mxCell>
        <mxCell id="bXTZh-DOCNGgYMy8ahr3-14" value="&lt;b style=&quot;&quot;&gt;&lt;font color=&quot;#3333ff&quot;&gt;Audio Service&lt;/font&gt;&lt;/b&gt;" style="rounded=1;whiteSpace=wrap;html=1;" parent="1" vertex="1">
          <mxGeometry x="220" y="490.25" width="70" height="39.5" as="geometry" />
        </mxCell>
        <mxCell id="bXTZh-DOCNGgYMy8ahr3-15" value="&lt;b style=&quot;&quot;&gt;&lt;font color=&quot;#3333ff&quot;&gt;Input Service&lt;/font&gt;&lt;/b&gt;" style="rounded=1;whiteSpace=wrap;html=1;" parent="1" vertex="1">
          <mxGeometry x="300" y="490.25" width="70" height="39.5" as="geometry" />
        </mxCell>
        <mxCell id="bXTZh-DOCNGgYMy8ahr3-16" value="&lt;b style=&quot;&quot;&gt;&lt;font color=&quot;#3333ff&quot;&gt;OpenGl&lt;/font&gt;&lt;/b&gt;" style="rounded=1;whiteSpace=wrap;html=1;" parent="1" vertex="1">
          <mxGeometry x="220" y="550.25" width="70" height="39.5" as="geometry" />
        </mxCell>
        <mxCell id="bXTZh-DOCNGgYMy8ahr3-18" value="&lt;b style=&quot;&quot;&gt;&lt;font color=&quot;#3333ff&quot;&gt;OpenES&lt;/font&gt;&lt;/b&gt;" style="rounded=1;whiteSpace=wrap;html=1;" parent="1" vertex="1">
          <mxGeometry x="300" y="550.25" width="70" height="39.5" as="geometry" />
        </mxCell>
        <mxCell id="bXTZh-DOCNGgYMy8ahr3-20" value="&lt;b style=&quot;&quot;&gt;&lt;font color=&quot;#3333ff&quot;&gt;Vulkan&lt;/font&gt;&lt;/b&gt;" style="rounded=1;whiteSpace=wrap;html=1;" parent="1" vertex="1">
          <mxGeometry x="385" y="550.25" width="70" height="39.5" as="geometry" />
        </mxCell>
        <mxCell id="bXTZh-DOCNGgYMy8ahr3-21" value="&lt;b style=&quot;&quot;&gt;&lt;font color=&quot;#3333ff&quot;&gt;PipeRender&lt;/font&gt;&lt;/b&gt;" style="rounded=1;whiteSpace=wrap;html=1;" parent="1" vertex="1">
          <mxGeometry x="470" y="550.25" width="70" height="39.5" as="geometry" />
        </mxCell>
        <mxCell id="bXTZh-DOCNGgYMy8ahr3-23" value="&lt;span style=&quot;text-wrap: wrap;&quot;&gt;&lt;b style=&quot;&quot;&gt;&lt;font color=&quot;#ff0080&quot;&gt;Engine&lt;/font&gt;&lt;/b&gt;&lt;/span&gt;" style="text;html=1;align=center;verticalAlign=middle;resizable=0;points=[];autosize=1;strokeColor=none;fillColor=none;" parent="1" vertex="1">
          <mxGeometry x="15" y="570" width="60" height="30" as="geometry" />
        </mxCell>
        <mxCell id="nIE0M11MLEUNFB4apL_E-1" value="" style="shape=flexArrow;endArrow=classic;html=1;rounded=0;endWidth=52;endSize=15;width=10;" edge="1" parent="1">
          <mxGeometry width="50" height="50" relative="1" as="geometry">
            <mxPoint x="710" y="410" as="sourcePoint" />
            <mxPoint x="820" y="410" as="targetPoint" />
          </mxGeometry>
        </mxCell>
        <mxCell id="nIE0M11MLEUNFB4apL_E-4" value="ActorProperty" style="swimlane;fontStyle=1;align=center;verticalAlign=top;childLayout=stackLayout;horizontal=1;startSize=26;horizontalStack=0;resizeParent=1;resizeParentMax=0;resizeLast=0;collapsible=1;marginBottom=0;whiteSpace=wrap;html=1;fillColor=#60a917;strokeColor=#2D7600;fontColor=#ffffff;" vertex="1" parent="1">
          <mxGeometry x="1150" y="519.25" width="160" height="86" as="geometry">
            <mxRectangle x="820" y="385.5" width="100" height="30" as="alternateBounds" />
          </mxGeometry>
        </mxCell>
        <mxCell id="nIE0M11MLEUNFB4apL_E-5" value="+ field: type" style="text;strokeColor=none;fillColor=none;align=left;verticalAlign=top;spacingLeft=4;spacingRight=4;overflow=hidden;rotatable=0;points=[[0,0.5],[1,0.5]];portConstraint=eastwest;whiteSpace=wrap;html=1;" vertex="1" parent="nIE0M11MLEUNFB4apL_E-4">
          <mxGeometry y="26" width="160" height="26" as="geometry" />
        </mxCell>
        <mxCell id="nIE0M11MLEUNFB4apL_E-6" value="" style="line;strokeWidth=1;fillColor=none;align=left;verticalAlign=middle;spacingTop=-1;spacingLeft=3;spacingRight=3;rotatable=0;labelPosition=right;points=[];portConstraint=eastwest;strokeColor=inherit;" vertex="1" parent="nIE0M11MLEUNFB4apL_E-4">
          <mxGeometry y="52" width="160" height="8" as="geometry" />
        </mxCell>
        <mxCell id="nIE0M11MLEUNFB4apL_E-7" value="+ method(type): type" style="text;strokeColor=none;fillColor=none;align=left;verticalAlign=top;spacingLeft=4;spacingRight=4;overflow=hidden;rotatable=0;points=[[0,0.5],[1,0.5]];portConstraint=eastwest;whiteSpace=wrap;html=1;" vertex="1" parent="nIE0M11MLEUNFB4apL_E-4">
          <mxGeometry y="60" width="160" height="26" as="geometry" />
        </mxCell>
        <mxCell id="nIE0M11MLEUNFB4apL_E-8" value="" style="shape=module;align=left;spacingLeft=20;align=center;verticalAlign=top;whiteSpace=wrap;html=1;fillColor=#1ba1e2;fontColor=#ffffff;strokeColor=#006EAF;" vertex="1" parent="1">
          <mxGeometry x="1450" y="355" width="220" height="136" as="geometry" />
        </mxCell>
        <mxCell id="nIE0M11MLEUNFB4apL_E-10" value="SkeletalAnimation" style="swimlane;fontStyle=1;align=center;verticalAlign=top;childLayout=stackLayout;horizontal=1;startSize=26;horizontalStack=0;resizeParent=1;resizeParentMax=0;resizeLast=0;collapsible=1;marginBottom=0;whiteSpace=wrap;html=1;fillColor=#dae8fc;strokeColor=#6c8ebf;" vertex="1" parent="1">
          <mxGeometry x="1150" y="649.25" width="160" height="86" as="geometry">
            <mxRectangle x="820" y="385.5" width="100" height="30" as="alternateBounds" />
          </mxGeometry>
        </mxCell>
        <mxCell id="nIE0M11MLEUNFB4apL_E-11" value="+ field: type" style="text;strokeColor=none;fillColor=none;align=left;verticalAlign=top;spacingLeft=4;spacingRight=4;overflow=hidden;rotatable=0;points=[[0,0.5],[1,0.5]];portConstraint=eastwest;whiteSpace=wrap;html=1;" vertex="1" parent="nIE0M11MLEUNFB4apL_E-10">
          <mxGeometry y="26" width="160" height="26" as="geometry" />
        </mxCell>
        <mxCell id="nIE0M11MLEUNFB4apL_E-12" value="" style="line;strokeWidth=1;fillColor=none;align=left;verticalAlign=middle;spacingTop=-1;spacingLeft=3;spacingRight=3;rotatable=0;labelPosition=right;points=[];portConstraint=eastwest;strokeColor=inherit;" vertex="1" parent="nIE0M11MLEUNFB4apL_E-10">
          <mxGeometry y="52" width="160" height="8" as="geometry" />
        </mxCell>
        <mxCell id="nIE0M11MLEUNFB4apL_E-13" value="+ method(type): type" style="text;strokeColor=none;fillColor=none;align=left;verticalAlign=top;spacingLeft=4;spacingRight=4;overflow=hidden;rotatable=0;points=[[0,0.5],[1,0.5]];portConstraint=eastwest;whiteSpace=wrap;html=1;" vertex="1" parent="nIE0M11MLEUNFB4apL_E-10">
          <mxGeometry y="60" width="160" height="26" as="geometry" />
        </mxCell>
        <mxCell id="nIE0M11MLEUNFB4apL_E-14" value="1" style="endArrow=open;html=1;endSize=12;startArrow=diamondThin;startSize=14;startFill=1;edgeStyle=orthogonalEdgeStyle;align=left;verticalAlign=bottom;rounded=0;exitX=0.25;exitY=1;exitDx=0;exitDy=0;entryX=1.019;entryY=0.923;entryDx=0;entryDy=0;entryPerimeter=0;" edge="1" parent="1" source="nIE0M11MLEUNFB4apL_E-8" target="nIE0M11MLEUNFB4apL_E-5">
          <mxGeometry x="-1" y="3" relative="1" as="geometry">
            <mxPoint x="1110" y="415" as="sourcePoint" />
            <mxPoint x="1270" y="415" as="targetPoint" />
          </mxGeometry>
        </mxCell>
        <mxCell id="nIE0M11MLEUNFB4apL_E-18" value="1" style="endArrow=open;html=1;endSize=12;startArrow=diamondThin;startSize=14;startFill=0;edgeStyle=orthogonalEdgeStyle;align=left;verticalAlign=bottom;rounded=0;entryX=1;entryY=0.808;entryDx=0;entryDy=0;entryPerimeter=0;exitX=0.405;exitY=1;exitDx=0;exitDy=0;exitPerimeter=0;" edge="1" parent="1" source="nIE0M11MLEUNFB4apL_E-8" target="nIE0M11MLEUNFB4apL_E-11">
          <mxGeometry x="-1" y="3" relative="1" as="geometry">
            <mxPoint x="1550" y="485" as="sourcePoint" />
            <mxPoint x="1270" y="515" as="targetPoint" />
            <Array as="points">
              <mxPoint x="1539" y="696" />
            </Array>
          </mxGeometry>
        </mxCell>
        <mxCell id="nIE0M11MLEUNFB4apL_E-19" value="RigidBody" style="swimlane;fontStyle=1;align=center;verticalAlign=top;childLayout=stackLayout;horizontal=1;startSize=26;horizontalStack=0;resizeParent=1;resizeParentMax=0;resizeLast=0;collapsible=1;marginBottom=0;whiteSpace=wrap;html=1;fillColor=#dae8fc;strokeColor=#6c8ebf;" vertex="1" parent="1">
          <mxGeometry x="1150" y="759.25" width="160" height="86" as="geometry">
            <mxRectangle x="820" y="385.5" width="100" height="30" as="alternateBounds" />
          </mxGeometry>
        </mxCell>
        <mxCell id="nIE0M11MLEUNFB4apL_E-20" value="+ field: type" style="text;strokeColor=none;fillColor=none;align=left;verticalAlign=top;spacingLeft=4;spacingRight=4;overflow=hidden;rotatable=0;points=[[0,0.5],[1,0.5]];portConstraint=eastwest;whiteSpace=wrap;html=1;" vertex="1" parent="nIE0M11MLEUNFB4apL_E-19">
          <mxGeometry y="26" width="160" height="26" as="geometry" />
        </mxCell>
        <mxCell id="nIE0M11MLEUNFB4apL_E-21" value="" style="line;strokeWidth=1;fillColor=none;align=left;verticalAlign=middle;spacingTop=-1;spacingLeft=3;spacingRight=3;rotatable=0;labelPosition=right;points=[];portConstraint=eastwest;strokeColor=inherit;" vertex="1" parent="nIE0M11MLEUNFB4apL_E-19">
          <mxGeometry y="52" width="160" height="8" as="geometry" />
        </mxCell>
        <mxCell id="nIE0M11MLEUNFB4apL_E-22" value="+ method(type): type" style="text;strokeColor=none;fillColor=none;align=left;verticalAlign=top;spacingLeft=4;spacingRight=4;overflow=hidden;rotatable=0;points=[[0,0.5],[1,0.5]];portConstraint=eastwest;whiteSpace=wrap;html=1;" vertex="1" parent="nIE0M11MLEUNFB4apL_E-19">
          <mxGeometry y="60" width="160" height="26" as="geometry" />
        </mxCell>
        <mxCell id="nIE0M11MLEUNFB4apL_E-23" value="1" style="endArrow=open;html=1;endSize=12;startArrow=diamondThin;startSize=14;startFill=0;edgeStyle=orthogonalEdgeStyle;align=left;verticalAlign=bottom;rounded=0;exitX=0.6;exitY=1;exitDx=0;exitDy=0;exitPerimeter=0;entryX=1.019;entryY=0.846;entryDx=0;entryDy=0;entryPerimeter=0;" edge="1" parent="1" source="nIE0M11MLEUNFB4apL_E-8" target="nIE0M11MLEUNFB4apL_E-20">
          <mxGeometry x="-1" y="3" relative="1" as="geometry">
            <mxPoint x="1510" y="615" as="sourcePoint" />
            <mxPoint x="1670" y="615" as="targetPoint" />
          </mxGeometry>
        </mxCell>
        <mxCell id="nIE0M11MLEUNFB4apL_E-24" value="&lt;span style=&quot;color: rgb(255, 255, 255); font-weight: 400;&quot;&gt;Actor&lt;/span&gt;" style="swimlane;fontStyle=1;align=center;verticalAlign=top;childLayout=stackLayout;horizontal=1;startSize=26;horizontalStack=0;resizeParent=1;resizeParentMax=0;resizeLast=0;collapsible=1;marginBottom=0;whiteSpace=wrap;html=1;fillColor=#60a917;fontColor=#ffffff;strokeColor=#2D7600;" vertex="1" parent="1">
          <mxGeometry x="1490" y="368.75" width="160" height="78" as="geometry" />
        </mxCell>
        <mxCell id="nIE0M11MLEUNFB4apL_E-25" value="+ field: type" style="text;strokeColor=none;fillColor=none;align=left;verticalAlign=top;spacingLeft=4;spacingRight=4;overflow=hidden;rotatable=0;points=[[0,0.5],[1,0.5]];portConstraint=eastwest;whiteSpace=wrap;html=1;" vertex="1" parent="nIE0M11MLEUNFB4apL_E-24">
          <mxGeometry y="26" width="160" height="18" as="geometry" />
        </mxCell>
        <mxCell id="nIE0M11MLEUNFB4apL_E-26" value="" style="line;strokeWidth=1;fillColor=none;align=left;verticalAlign=middle;spacingTop=-1;spacingLeft=3;spacingRight=3;rotatable=0;labelPosition=right;points=[];portConstraint=eastwest;strokeColor=inherit;" vertex="1" parent="nIE0M11MLEUNFB4apL_E-24">
          <mxGeometry y="44" width="160" height="8" as="geometry" />
        </mxCell>
        <mxCell id="nIE0M11MLEUNFB4apL_E-27" value="+ method(type): type" style="text;strokeColor=none;fillColor=none;align=left;verticalAlign=top;spacingLeft=4;spacingRight=4;overflow=hidden;rotatable=0;points=[[0,0.5],[1,0.5]];portConstraint=eastwest;whiteSpace=wrap;html=1;" vertex="1" parent="nIE0M11MLEUNFB4apL_E-24">
          <mxGeometry y="52" width="160" height="26" as="geometry" />
        </mxCell>
        <mxCell id="nIE0M11MLEUNFB4apL_E-28" value="Events" style="swimlane;fontStyle=1;align=center;verticalAlign=top;childLayout=stackLayout;horizontal=1;startSize=26;horizontalStack=0;resizeParent=1;resizeParentMax=0;resizeLast=0;collapsible=1;marginBottom=0;whiteSpace=wrap;html=1;fillColor=#60a917;strokeColor=#2D7600;fontColor=#ffffff;" vertex="1" parent="1">
          <mxGeometry x="1760" y="355" width="160" height="86" as="geometry">
            <mxRectangle x="820" y="385.5" width="100" height="30" as="alternateBounds" />
          </mxGeometry>
        </mxCell>
        <mxCell id="nIE0M11MLEUNFB4apL_E-29" value="+ field: type" style="text;strokeColor=none;fillColor=none;align=left;verticalAlign=top;spacingLeft=4;spacingRight=4;overflow=hidden;rotatable=0;points=[[0,0.5],[1,0.5]];portConstraint=eastwest;whiteSpace=wrap;html=1;" vertex="1" parent="nIE0M11MLEUNFB4apL_E-28">
          <mxGeometry y="26" width="160" height="26" as="geometry" />
        </mxCell>
        <mxCell id="nIE0M11MLEUNFB4apL_E-30" value="" style="line;strokeWidth=1;fillColor=none;align=left;verticalAlign=middle;spacingTop=-1;spacingLeft=3;spacingRight=3;rotatable=0;labelPosition=right;points=[];portConstraint=eastwest;strokeColor=inherit;" vertex="1" parent="nIE0M11MLEUNFB4apL_E-28">
          <mxGeometry y="52" width="160" height="8" as="geometry" />
        </mxCell>
        <mxCell id="nIE0M11MLEUNFB4apL_E-31" value="+ method(type): type" style="text;strokeColor=none;fillColor=none;align=left;verticalAlign=top;spacingLeft=4;spacingRight=4;overflow=hidden;rotatable=0;points=[[0,0.5],[1,0.5]];portConstraint=eastwest;whiteSpace=wrap;html=1;" vertex="1" parent="nIE0M11MLEUNFB4apL_E-28">
          <mxGeometry y="60" width="160" height="26" as="geometry" />
        </mxCell>
        <mxCell id="nIE0M11MLEUNFB4apL_E-33" value="" style="endArrow=open;endSize=12;dashed=1;html=1;rounded=0;exitX=1;exitY=0.25;exitDx=0;exitDy=0;entryX=-0.006;entryY=0.269;entryDx=0;entryDy=0;entryPerimeter=0;" edge="1" parent="1" source="nIE0M11MLEUNFB4apL_E-8" target="nIE0M11MLEUNFB4apL_E-29">
          <mxGeometry width="160" relative="1" as="geometry">
            <mxPoint x="1510" y="615" as="sourcePoint" />
            <mxPoint x="1670" y="615" as="targetPoint" />
          </mxGeometry>
        </mxCell>
        <mxCell id="nIE0M11MLEUNFB4apL_E-34" value="PhysicsGroup" style="swimlane;fontStyle=1;align=center;verticalAlign=top;childLayout=stackLayout;horizontal=1;startSize=26;horizontalStack=0;resizeParent=1;resizeParentMax=0;resizeLast=0;collapsible=1;marginBottom=0;whiteSpace=wrap;html=1;fillColor=#60a917;strokeColor=#2D7600;fontColor=#ffffff;" vertex="1" parent="1">
          <mxGeometry x="1760" y="469" width="160" height="86" as="geometry">
            <mxRectangle x="820" y="385.5" width="100" height="30" as="alternateBounds" />
          </mxGeometry>
        </mxCell>
        <mxCell id="nIE0M11MLEUNFB4apL_E-35" value="+ field: type" style="text;strokeColor=none;fillColor=none;align=left;verticalAlign=top;spacingLeft=4;spacingRight=4;overflow=hidden;rotatable=0;points=[[0,0.5],[1,0.5]];portConstraint=eastwest;whiteSpace=wrap;html=1;" vertex="1" parent="nIE0M11MLEUNFB4apL_E-34">
          <mxGeometry y="26" width="160" height="26" as="geometry" />
        </mxCell>
        <mxCell id="nIE0M11MLEUNFB4apL_E-36" value="" style="line;strokeWidth=1;fillColor=none;align=left;verticalAlign=middle;spacingTop=-1;spacingLeft=3;spacingRight=3;rotatable=0;labelPosition=right;points=[];portConstraint=eastwest;strokeColor=inherit;" vertex="1" parent="nIE0M11MLEUNFB4apL_E-34">
          <mxGeometry y="52" width="160" height="8" as="geometry" />
        </mxCell>
        <mxCell id="nIE0M11MLEUNFB4apL_E-37" value="+ method(type): type" style="text;strokeColor=none;fillColor=none;align=left;verticalAlign=top;spacingLeft=4;spacingRight=4;overflow=hidden;rotatable=0;points=[[0,0.5],[1,0.5]];portConstraint=eastwest;whiteSpace=wrap;html=1;" vertex="1" parent="nIE0M11MLEUNFB4apL_E-34">
          <mxGeometry y="60" width="160" height="26" as="geometry" />
        </mxCell>
        <mxCell id="nIE0M11MLEUNFB4apL_E-38" value="" style="endArrow=open;endSize=12;dashed=1;html=1;rounded=0;exitX=1;exitY=0.25;exitDx=0;exitDy=0;entryX=-0.006;entryY=0.269;entryDx=0;entryDy=0;entryPerimeter=0;" edge="1" parent="1">
          <mxGeometry width="160" relative="1" as="geometry">
            <mxPoint x="1670.96" y="481.01" as="sourcePoint" />
            <mxPoint x="1759.96" y="480.01" as="targetPoint" />
          </mxGeometry>
        </mxCell>
        <mxCell id="nIE0M11MLEUNFB4apL_E-39" value="" style="shape=module;align=left;spacingLeft=20;align=center;verticalAlign=top;whiteSpace=wrap;html=1;fillColor=#1ba1e2;fontColor=#ffffff;strokeColor=#006EAF;" vertex="1" parent="1">
          <mxGeometry x="1450" y="90" width="220" height="136" as="geometry" />
        </mxCell>
        <mxCell id="nIE0M11MLEUNFB4apL_E-40" value="&lt;span style=&quot;font-weight: 400;&quot;&gt;PlayerController&lt;/span&gt;" style="swimlane;fontStyle=1;align=center;verticalAlign=top;childLayout=stackLayout;horizontal=1;startSize=26;horizontalStack=0;resizeParent=1;resizeParentMax=0;resizeLast=0;collapsible=1;marginBottom=0;whiteSpace=wrap;html=1;fillColor=#60a917;fontColor=#ffffff;strokeColor=#2D7600;" vertex="1" parent="1">
          <mxGeometry x="1490" y="110" width="160" height="52" as="geometry" />
        </mxCell>
        <mxCell id="nIE0M11MLEUNFB4apL_E-41" value="+ field: type" style="text;strokeColor=none;fillColor=none;align=left;verticalAlign=top;spacingLeft=4;spacingRight=4;overflow=hidden;rotatable=0;points=[[0,0.5],[1,0.5]];portConstraint=eastwest;whiteSpace=wrap;html=1;" vertex="1" parent="nIE0M11MLEUNFB4apL_E-40">
          <mxGeometry y="26" width="160" height="18" as="geometry" />
        </mxCell>
        <mxCell id="nIE0M11MLEUNFB4apL_E-42" value="" style="line;strokeWidth=1;fillColor=none;align=left;verticalAlign=middle;spacingTop=-1;spacingLeft=3;spacingRight=3;rotatable=0;labelPosition=right;points=[];portConstraint=eastwest;strokeColor=inherit;" vertex="1" parent="nIE0M11MLEUNFB4apL_E-40">
          <mxGeometry y="44" width="160" height="8" as="geometry" />
        </mxCell>
        <mxCell id="nIE0M11MLEUNFB4apL_E-44" value="1" style="endArrow=open;html=1;endSize=12;startArrow=diamondThin;startSize=14;startFill=1;edgeStyle=orthogonalEdgeStyle;align=left;verticalAlign=bottom;rounded=0;exitX=0.5;exitY=1;exitDx=0;exitDy=0;entryX=0.5;entryY=0;entryDx=0;entryDy=0;" edge="1" parent="1" source="nIE0M11MLEUNFB4apL_E-39" target="nIE0M11MLEUNFB4apL_E-8">
          <mxGeometry x="-1" y="3" relative="1" as="geometry">
            <mxPoint x="1610" y="365" as="sourcePoint" />
            <mxPoint x="1770" y="365" as="targetPoint" />
          </mxGeometry>
        </mxCell>
        <mxCell id="nIE0M11MLEUNFB4apL_E-45" value="ActorManager" style="swimlane;fontStyle=1;align=center;verticalAlign=top;childLayout=stackLayout;horizontal=1;startSize=26;horizontalStack=0;resizeParent=1;resizeParentMax=0;resizeLast=0;collapsible=1;marginBottom=0;whiteSpace=wrap;html=1;fillColor=#60a917;strokeColor=#2D7600;fontColor=#ffffff;" vertex="1" parent="1">
          <mxGeometry x="1150" y="355" width="160" height="86" as="geometry">
            <mxRectangle x="820" y="385.5" width="100" height="30" as="alternateBounds" />
          </mxGeometry>
        </mxCell>
        <mxCell id="nIE0M11MLEUNFB4apL_E-46" value="+ field: type" style="text;strokeColor=none;fillColor=none;align=left;verticalAlign=top;spacingLeft=4;spacingRight=4;overflow=hidden;rotatable=0;points=[[0,0.5],[1,0.5]];portConstraint=eastwest;whiteSpace=wrap;html=1;" vertex="1" parent="nIE0M11MLEUNFB4apL_E-45">
          <mxGeometry y="26" width="160" height="26" as="geometry" />
        </mxCell>
        <mxCell id="nIE0M11MLEUNFB4apL_E-47" value="" style="line;strokeWidth=1;fillColor=none;align=left;verticalAlign=middle;spacingTop=-1;spacingLeft=3;spacingRight=3;rotatable=0;labelPosition=right;points=[];portConstraint=eastwest;strokeColor=inherit;" vertex="1" parent="nIE0M11MLEUNFB4apL_E-45">
          <mxGeometry y="52" width="160" height="8" as="geometry" />
        </mxCell>
        <mxCell id="nIE0M11MLEUNFB4apL_E-48" value="+ method(type): type" style="text;strokeColor=none;fillColor=none;align=left;verticalAlign=top;spacingLeft=4;spacingRight=4;overflow=hidden;rotatable=0;points=[[0,0.5],[1,0.5]];portConstraint=eastwest;whiteSpace=wrap;html=1;" vertex="1" parent="nIE0M11MLEUNFB4apL_E-45">
          <mxGeometry y="60" width="160" height="26" as="geometry" />
        </mxCell>
        <mxCell id="nIE0M11MLEUNFB4apL_E-49" value="1" style="endArrow=open;html=1;endSize=12;startArrow=diamondThin;startSize=14;startFill=1;edgeStyle=orthogonalEdgeStyle;align=left;verticalAlign=bottom;rounded=0;entryX=0.045;entryY=0.441;entryDx=0;entryDy=0;entryPerimeter=0;" edge="1" parent="1" target="nIE0M11MLEUNFB4apL_E-8">
          <mxGeometry x="-1" y="3" relative="1" as="geometry">
            <mxPoint x="1310" y="415" as="sourcePoint" />
            <mxPoint x="1580" y="565" as="targetPoint" />
            <Array as="points">
              <mxPoint x="1310" y="415" />
            </Array>
          </mxGeometry>
        </mxCell>
        <mxCell id="nIE0M11MLEUNFB4apL_E-50" value="DynamicResourceDefine" style="swimlane;fontStyle=1;align=center;verticalAlign=top;childLayout=stackLayout;horizontal=1;startSize=26;horizontalStack=0;resizeParent=1;resizeParentMax=0;resizeLast=0;collapsible=1;marginBottom=0;whiteSpace=wrap;html=1;fillColor=#60a917;strokeColor=#2D7600;fontColor=#ffffff;" vertex="1" parent="1">
          <mxGeometry x="1150" y="188" width="160" height="86" as="geometry">
            <mxRectangle x="820" y="385.5" width="100" height="30" as="alternateBounds" />
          </mxGeometry>
        </mxCell>
        <mxCell id="nIE0M11MLEUNFB4apL_E-51" value="+ field: type" style="text;strokeColor=none;fillColor=none;align=left;verticalAlign=top;spacingLeft=4;spacingRight=4;overflow=hidden;rotatable=0;points=[[0,0.5],[1,0.5]];portConstraint=eastwest;whiteSpace=wrap;html=1;" vertex="1" parent="nIE0M11MLEUNFB4apL_E-50">
          <mxGeometry y="26" width="160" height="26" as="geometry" />
        </mxCell>
        <mxCell id="nIE0M11MLEUNFB4apL_E-52" value="" style="line;strokeWidth=1;fillColor=none;align=left;verticalAlign=middle;spacingTop=-1;spacingLeft=3;spacingRight=3;rotatable=0;labelPosition=right;points=[];portConstraint=eastwest;strokeColor=inherit;" vertex="1" parent="nIE0M11MLEUNFB4apL_E-50">
          <mxGeometry y="52" width="160" height="8" as="geometry" />
        </mxCell>
        <mxCell id="nIE0M11MLEUNFB4apL_E-53" value="+ method(type): type" style="text;strokeColor=none;fillColor=none;align=left;verticalAlign=top;spacingLeft=4;spacingRight=4;overflow=hidden;rotatable=0;points=[[0,0.5],[1,0.5]];portConstraint=eastwest;whiteSpace=wrap;html=1;" vertex="1" parent="nIE0M11MLEUNFB4apL_E-50">
          <mxGeometry y="60" width="160" height="26" as="geometry" />
        </mxCell>
        <mxCell id="nIE0M11MLEUNFB4apL_E-54" value="" style="endArrow=open;endSize=12;dashed=1;html=1;rounded=0;exitX=0.5;exitY=0;exitDx=0;exitDy=0;entryX=0.508;entryY=1.026;entryDx=0;entryDy=0;entryPerimeter=0;" edge="1" parent="1" source="nIE0M11MLEUNFB4apL_E-45" target="nIE0M11MLEUNFB4apL_E-53">
          <mxGeometry width="160" relative="1" as="geometry">
            <mxPoint x="1420" y="395" as="sourcePoint" />
            <mxPoint x="1580" y="395" as="targetPoint" />
          </mxGeometry>
        </mxCell>
        <mxCell id="nIE0M11MLEUNFB4apL_E-55" value="Pools" style="swimlane;fontStyle=1;align=center;verticalAlign=top;childLayout=stackLayout;horizontal=1;startSize=26;horizontalStack=0;resizeParent=1;resizeParentMax=0;resizeLast=0;collapsible=1;marginBottom=0;whiteSpace=wrap;html=1;fillColor=#60a917;strokeColor=#2D7600;fontColor=#ffffff;" vertex="1" parent="1">
          <mxGeometry x="890" y="355" width="160" height="86" as="geometry">
            <mxRectangle x="820" y="385.5" width="100" height="30" as="alternateBounds" />
          </mxGeometry>
        </mxCell>
        <mxCell id="nIE0M11MLEUNFB4apL_E-56" value="+ field: type" style="text;strokeColor=none;fillColor=none;align=left;verticalAlign=top;spacingLeft=4;spacingRight=4;overflow=hidden;rotatable=0;points=[[0,0.5],[1,0.5]];portConstraint=eastwest;whiteSpace=wrap;html=1;" vertex="1" parent="nIE0M11MLEUNFB4apL_E-55">
          <mxGeometry y="26" width="160" height="26" as="geometry" />
        </mxCell>
        <mxCell id="nIE0M11MLEUNFB4apL_E-57" value="" style="line;strokeWidth=1;fillColor=none;align=left;verticalAlign=middle;spacingTop=-1;spacingLeft=3;spacingRight=3;rotatable=0;labelPosition=right;points=[];portConstraint=eastwest;strokeColor=inherit;" vertex="1" parent="nIE0M11MLEUNFB4apL_E-55">
          <mxGeometry y="52" width="160" height="8" as="geometry" />
        </mxCell>
        <mxCell id="nIE0M11MLEUNFB4apL_E-58" value="+ method(type): type" style="text;strokeColor=none;fillColor=none;align=left;verticalAlign=top;spacingLeft=4;spacingRight=4;overflow=hidden;rotatable=0;points=[[0,0.5],[1,0.5]];portConstraint=eastwest;whiteSpace=wrap;html=1;" vertex="1" parent="nIE0M11MLEUNFB4apL_E-55">
          <mxGeometry y="60" width="160" height="26" as="geometry" />
        </mxCell>
        <mxCell id="nIE0M11MLEUNFB4apL_E-60" value="" style="endArrow=open;endFill=1;endSize=12;html=1;rounded=0;exitX=0;exitY=1.115;exitDx=0;exitDy=0;exitPerimeter=0;" edge="1" parent="1" source="nIE0M11MLEUNFB4apL_E-46">
          <mxGeometry width="160" relative="1" as="geometry">
            <mxPoint x="1250" y="410" as="sourcePoint" />
            <mxPoint x="1050" y="410" as="targetPoint" />
          </mxGeometry>
        </mxCell>
        <mxCell id="nIE0M11MLEUNFB4apL_E-61" value="EffectManager" style="swimlane;fontStyle=1;align=center;verticalAlign=top;childLayout=stackLayout;horizontal=1;startSize=26;horizontalStack=0;resizeParent=1;resizeParentMax=0;resizeLast=0;collapsible=1;marginBottom=0;whiteSpace=wrap;html=1;fillColor=#60a917;strokeColor=#2D7600;fontColor=#ffffff;" vertex="1" parent="1">
          <mxGeometry x="890" y="188" width="160" height="86" as="geometry">
            <mxRectangle x="820" y="385.5" width="100" height="30" as="alternateBounds" />
          </mxGeometry>
        </mxCell>
        <mxCell id="nIE0M11MLEUNFB4apL_E-62" value="+ field: type" style="text;strokeColor=none;fillColor=none;align=left;verticalAlign=top;spacingLeft=4;spacingRight=4;overflow=hidden;rotatable=0;points=[[0,0.5],[1,0.5]];portConstraint=eastwest;whiteSpace=wrap;html=1;" vertex="1" parent="nIE0M11MLEUNFB4apL_E-61">
          <mxGeometry y="26" width="160" height="26" as="geometry" />
        </mxCell>
        <mxCell id="nIE0M11MLEUNFB4apL_E-63" value="" style="line;strokeWidth=1;fillColor=none;align=left;verticalAlign=middle;spacingTop=-1;spacingLeft=3;spacingRight=3;rotatable=0;labelPosition=right;points=[];portConstraint=eastwest;strokeColor=inherit;" vertex="1" parent="nIE0M11MLEUNFB4apL_E-61">
          <mxGeometry y="52" width="160" height="8" as="geometry" />
        </mxCell>
        <mxCell id="nIE0M11MLEUNFB4apL_E-64" value="+ method(type): type" style="text;strokeColor=none;fillColor=none;align=left;verticalAlign=top;spacingLeft=4;spacingRight=4;overflow=hidden;rotatable=0;points=[[0,0.5],[1,0.5]];portConstraint=eastwest;whiteSpace=wrap;html=1;" vertex="1" parent="nIE0M11MLEUNFB4apL_E-61">
          <mxGeometry y="60" width="160" height="26" as="geometry" />
        </mxCell>
        <mxCell id="nIE0M11MLEUNFB4apL_E-65" value="" style="endArrow=open;endSize=12;dashed=1;html=1;rounded=0;entryX=0.451;entryY=0.994;entryDx=0;entryDy=0;exitX=0.5;exitY=0;exitDx=0;exitDy=0;entryPerimeter=0;" edge="1" parent="1" source="nIE0M11MLEUNFB4apL_E-45" target="nIE0M11MLEUNFB4apL_E-64">
          <mxGeometry width="160" relative="1" as="geometry">
            <mxPoint x="1230" y="350" as="sourcePoint" />
            <mxPoint x="1241" y="285" as="targetPoint" />
          </mxGeometry>
        </mxCell>
        <mxCell id="nIE0M11MLEUNFB4apL_E-66" value="VirtualInput" style="swimlane;fontStyle=1;align=center;verticalAlign=top;childLayout=stackLayout;horizontal=1;startSize=26;horizontalStack=0;resizeParent=1;resizeParentMax=0;resizeLast=0;collapsible=1;marginBottom=0;whiteSpace=wrap;html=1;fillColor=#60a917;strokeColor=#2D7600;fontColor=#ffffff;" vertex="1" parent="1">
          <mxGeometry x="1150" y="20" width="160" height="86" as="geometry">
            <mxRectangle x="820" y="385.5" width="100" height="30" as="alternateBounds" />
          </mxGeometry>
        </mxCell>
        <mxCell id="nIE0M11MLEUNFB4apL_E-67" value="+ field: type" style="text;strokeColor=none;fillColor=none;align=left;verticalAlign=top;spacingLeft=4;spacingRight=4;overflow=hidden;rotatable=0;points=[[0,0.5],[1,0.5]];portConstraint=eastwest;whiteSpace=wrap;html=1;" vertex="1" parent="nIE0M11MLEUNFB4apL_E-66">
          <mxGeometry y="26" width="160" height="26" as="geometry" />
        </mxCell>
        <mxCell id="nIE0M11MLEUNFB4apL_E-68" value="" style="line;strokeWidth=1;fillColor=none;align=left;verticalAlign=middle;spacingTop=-1;spacingLeft=3;spacingRight=3;rotatable=0;labelPosition=right;points=[];portConstraint=eastwest;strokeColor=inherit;" vertex="1" parent="nIE0M11MLEUNFB4apL_E-66">
          <mxGeometry y="52" width="160" height="8" as="geometry" />
        </mxCell>
        <mxCell id="nIE0M11MLEUNFB4apL_E-69" value="+ method(type): type" style="text;strokeColor=none;fillColor=none;align=left;verticalAlign=top;spacingLeft=4;spacingRight=4;overflow=hidden;rotatable=0;points=[[0,0.5],[1,0.5]];portConstraint=eastwest;whiteSpace=wrap;html=1;" vertex="1" parent="nIE0M11MLEUNFB4apL_E-66">
          <mxGeometry y="60" width="160" height="26" as="geometry" />
        </mxCell>
        <mxCell id="nIE0M11MLEUNFB4apL_E-70" value="" style="endArrow=open;endSize=12;dashed=1;html=1;rounded=0;exitX=0.029;exitY=0.549;exitDx=0;exitDy=0;entryX=0.493;entryY=1.109;entryDx=0;entryDy=0;entryPerimeter=0;exitPerimeter=0;" edge="1" parent="1" source="nIE0M11MLEUNFB4apL_E-39" target="nIE0M11MLEUNFB4apL_E-69">
          <mxGeometry width="160" relative="1" as="geometry">
            <mxPoint x="1410" y="120" as="sourcePoint" />
            <mxPoint x="1411" y="40" as="targetPoint" />
          </mxGeometry>
        </mxCell>
        <mxCell id="nIE0M11MLEUNFB4apL_E-71" value="" style="endArrow=open;endSize=12;dashed=1;html=1;rounded=0;exitX=0.048;exitY=0.592;exitDx=0;exitDy=0;entryX=1.003;entryY=0.718;entryDx=0;entryDy=0;entryPerimeter=0;exitPerimeter=0;" edge="1" parent="1" source="nIE0M11MLEUNFB4apL_E-39" target="nIE0M11MLEUNFB4apL_E-46">
          <mxGeometry width="160" relative="1" as="geometry">
            <mxPoint x="1466" y="175" as="sourcePoint" />
            <mxPoint x="1239" y="119" as="targetPoint" />
          </mxGeometry>
        </mxCell>
        <mxCell id="nIE0M11MLEUNFB4apL_E-72" value="AudioManager" style="swimlane;fontStyle=1;align=center;verticalAlign=top;childLayout=stackLayout;horizontal=1;startSize=26;horizontalStack=0;resizeParent=1;resizeParentMax=0;resizeLast=0;collapsible=1;marginBottom=0;whiteSpace=wrap;html=1;fillColor=#60a917;strokeColor=#2D7600;fontColor=#ffffff;" vertex="1" parent="1">
          <mxGeometry x="890" y="20" width="160" height="86" as="geometry">
            <mxRectangle x="820" y="385.5" width="100" height="30" as="alternateBounds" />
          </mxGeometry>
        </mxCell>
        <mxCell id="nIE0M11MLEUNFB4apL_E-73" value="+ field: type" style="text;strokeColor=none;fillColor=none;align=left;verticalAlign=top;spacingLeft=4;spacingRight=4;overflow=hidden;rotatable=0;points=[[0,0.5],[1,0.5]];portConstraint=eastwest;whiteSpace=wrap;html=1;" vertex="1" parent="nIE0M11MLEUNFB4apL_E-72">
          <mxGeometry y="26" width="160" height="26" as="geometry" />
        </mxCell>
        <mxCell id="nIE0M11MLEUNFB4apL_E-74" value="" style="line;strokeWidth=1;fillColor=none;align=left;verticalAlign=middle;spacingTop=-1;spacingLeft=3;spacingRight=3;rotatable=0;labelPosition=right;points=[];portConstraint=eastwest;strokeColor=inherit;" vertex="1" parent="nIE0M11MLEUNFB4apL_E-72">
          <mxGeometry y="52" width="160" height="8" as="geometry" />
        </mxCell>
        <mxCell id="nIE0M11MLEUNFB4apL_E-75" value="+ method(type): type" style="text;strokeColor=none;fillColor=none;align=left;verticalAlign=top;spacingLeft=4;spacingRight=4;overflow=hidden;rotatable=0;points=[[0,0.5],[1,0.5]];portConstraint=eastwest;whiteSpace=wrap;html=1;" vertex="1" parent="nIE0M11MLEUNFB4apL_E-72">
          <mxGeometry y="60" width="160" height="26" as="geometry" />
        </mxCell>
        <mxCell id="nIE0M11MLEUNFB4apL_E-76" value="" style="endArrow=open;endSize=12;dashed=1;html=1;rounded=0;exitX=0.048;exitY=0.549;exitDx=0;exitDy=0;entryX=0.487;entryY=1.077;entryDx=0;entryDy=0;entryPerimeter=0;exitPerimeter=0;" edge="1" parent="1" source="nIE0M11MLEUNFB4apL_E-39" target="nIE0M11MLEUNFB4apL_E-75">
          <mxGeometry width="160" relative="1" as="geometry">
            <mxPoint x="1466" y="175" as="sourcePoint" />
            <mxPoint x="1239" y="119" as="targetPoint" />
          </mxGeometry>
        </mxCell>
        <mxCell id="nIE0M11MLEUNFB4apL_E-77" value="" style="endArrow=open;endSize=12;dashed=1;html=1;rounded=0;exitX=0.048;exitY=0.549;exitDx=0;exitDy=0;entryX=1.019;entryY=0.891;entryDx=0;entryDy=0;entryPerimeter=0;exitPerimeter=0;" edge="1" parent="1" source="nIE0M11MLEUNFB4apL_E-39" target="nIE0M11MLEUNFB4apL_E-51">
          <mxGeometry width="160" relative="1" as="geometry">
            <mxPoint x="1466" y="175" as="sourcePoint" />
            <mxPoint x="1239" y="119" as="targetPoint" />
          </mxGeometry>
        </mxCell>
        <mxCell id="nIE0M11MLEUNFB4apL_E-78" value="" style="shape=module;align=left;spacingLeft=20;align=center;verticalAlign=top;whiteSpace=wrap;html=1;fillColor=#1ba1e2;fontColor=#ffffff;strokeColor=#006EAF;" vertex="1" parent="1">
          <mxGeometry x="1450" y="-180" width="220" height="136" as="geometry" />
        </mxCell>
        <mxCell id="nIE0M11MLEUNFB4apL_E-79" value="&lt;span style=&quot;font-weight: 400;&quot;&gt;ProjectTileEmitter&lt;/span&gt;" style="swimlane;fontStyle=1;align=center;verticalAlign=top;childLayout=stackLayout;horizontal=1;startSize=26;horizontalStack=0;resizeParent=1;resizeParentMax=0;resizeLast=0;collapsible=1;marginBottom=0;whiteSpace=wrap;html=1;fillColor=#60a917;fontColor=#ffffff;strokeColor=#2D7600;" vertex="1" parent="1">
          <mxGeometry x="1490" y="-160" width="160" height="78" as="geometry" />
        </mxCell>
        <mxCell id="nIE0M11MLEUNFB4apL_E-80" value="+ field: type" style="text;strokeColor=none;fillColor=none;align=left;verticalAlign=top;spacingLeft=4;spacingRight=4;overflow=hidden;rotatable=0;points=[[0,0.5],[1,0.5]];portConstraint=eastwest;whiteSpace=wrap;html=1;" vertex="1" parent="nIE0M11MLEUNFB4apL_E-79">
          <mxGeometry y="26" width="160" height="18" as="geometry" />
        </mxCell>
        <mxCell id="nIE0M11MLEUNFB4apL_E-81" value="" style="line;strokeWidth=1;fillColor=none;align=left;verticalAlign=middle;spacingTop=-1;spacingLeft=3;spacingRight=3;rotatable=0;labelPosition=right;points=[];portConstraint=eastwest;strokeColor=inherit;" vertex="1" parent="nIE0M11MLEUNFB4apL_E-79">
          <mxGeometry y="44" width="160" height="8" as="geometry" />
        </mxCell>
        <mxCell id="nIE0M11MLEUNFB4apL_E-82" value="+ method(type): type" style="text;strokeColor=none;fillColor=none;align=left;verticalAlign=top;spacingLeft=4;spacingRight=4;overflow=hidden;rotatable=0;points=[[0,0.5],[1,0.5]];portConstraint=eastwest;whiteSpace=wrap;html=1;" vertex="1" parent="nIE0M11MLEUNFB4apL_E-79">
          <mxGeometry y="52" width="160" height="26" as="geometry" />
        </mxCell>
        <mxCell id="nIE0M11MLEUNFB4apL_E-83" value="" style="endArrow=open;endFill=1;endSize=12;html=1;rounded=0;exitX=0.5;exitY=0;exitDx=0;exitDy=0;entryX=0.5;entryY=0.956;entryDx=0;entryDy=0;entryPerimeter=0;" edge="1" parent="1" source="nIE0M11MLEUNFB4apL_E-39" target="nIE0M11MLEUNFB4apL_E-78">
          <mxGeometry width="160" relative="1" as="geometry">
            <mxPoint x="1590" y="30" as="sourcePoint" />
            <mxPoint x="1560" as="targetPoint" />
          </mxGeometry>
        </mxCell>
        <mxCell id="nIE0M11MLEUNFB4apL_E-84" value="" style="shape=module;align=left;spacingLeft=20;align=center;verticalAlign=top;whiteSpace=wrap;html=1;fillColor=#1ba1e2;fontColor=#ffffff;strokeColor=#006EAF;" vertex="1" parent="1">
          <mxGeometry x="1450" y="-410" width="220" height="136" as="geometry" />
        </mxCell>
        <mxCell id="nIE0M11MLEUNFB4apL_E-85" value="&lt;span style=&quot;font-weight: 400;&quot;&gt;ProjectTile&lt;/span&gt;" style="swimlane;fontStyle=1;align=center;verticalAlign=top;childLayout=stackLayout;horizontal=1;startSize=26;horizontalStack=0;resizeParent=1;resizeParentMax=0;resizeLast=0;collapsible=1;marginBottom=0;whiteSpace=wrap;html=1;fillColor=#60a917;fontColor=#ffffff;strokeColor=#2D7600;" vertex="1" parent="1">
          <mxGeometry x="1490" y="-390" width="160" height="78" as="geometry" />
        </mxCell>
        <mxCell id="nIE0M11MLEUNFB4apL_E-86" value="+ field: type" style="text;strokeColor=none;fillColor=none;align=left;verticalAlign=top;spacingLeft=4;spacingRight=4;overflow=hidden;rotatable=0;points=[[0,0.5],[1,0.5]];portConstraint=eastwest;whiteSpace=wrap;html=1;" vertex="1" parent="nIE0M11MLEUNFB4apL_E-85">
          <mxGeometry y="26" width="160" height="18" as="geometry" />
        </mxCell>
        <mxCell id="nIE0M11MLEUNFB4apL_E-87" value="" style="line;strokeWidth=1;fillColor=none;align=left;verticalAlign=middle;spacingTop=-1;spacingLeft=3;spacingRight=3;rotatable=0;labelPosition=right;points=[];portConstraint=eastwest;strokeColor=inherit;" vertex="1" parent="nIE0M11MLEUNFB4apL_E-85">
          <mxGeometry y="44" width="160" height="8" as="geometry" />
        </mxCell>
        <mxCell id="nIE0M11MLEUNFB4apL_E-88" value="+ method(type): type" style="text;strokeColor=none;fillColor=none;align=left;verticalAlign=top;spacingLeft=4;spacingRight=4;overflow=hidden;rotatable=0;points=[[0,0.5],[1,0.5]];portConstraint=eastwest;whiteSpace=wrap;html=1;" vertex="1" parent="nIE0M11MLEUNFB4apL_E-85">
          <mxGeometry y="52" width="160" height="26" as="geometry" />
        </mxCell>
        <mxCell id="nIE0M11MLEUNFB4apL_E-89" value="" style="shape=module;align=left;spacingLeft=20;align=center;verticalAlign=top;whiteSpace=wrap;html=1;fillColor=#1ba1e2;strokeColor=#006EAF;fontColor=#ffffff;" vertex="1" parent="1">
          <mxGeometry x="1120" y="-410" width="220" height="136" as="geometry" />
        </mxCell>
        <mxCell id="nIE0M11MLEUNFB4apL_E-90" value="&lt;span style=&quot;font-weight: 400;&quot;&gt;ParticleSystem&lt;/span&gt;" style="swimlane;fontStyle=1;align=center;verticalAlign=top;childLayout=stackLayout;horizontal=1;startSize=26;horizontalStack=0;resizeParent=1;resizeParentMax=0;resizeLast=0;collapsible=1;marginBottom=0;whiteSpace=wrap;html=1;fillColor=#dae8fc;strokeColor=#6c8ebf;" vertex="1" parent="1">
          <mxGeometry x="1160" y="-390" width="160" height="78" as="geometry" />
        </mxCell>
        <mxCell id="nIE0M11MLEUNFB4apL_E-91" value="+ field: type" style="text;strokeColor=none;fillColor=none;align=left;verticalAlign=top;spacingLeft=4;spacingRight=4;overflow=hidden;rotatable=0;points=[[0,0.5],[1,0.5]];portConstraint=eastwest;whiteSpace=wrap;html=1;" vertex="1" parent="nIE0M11MLEUNFB4apL_E-90">
          <mxGeometry y="26" width="160" height="18" as="geometry" />
        </mxCell>
        <mxCell id="nIE0M11MLEUNFB4apL_E-92" value="" style="line;strokeWidth=1;fillColor=none;align=left;verticalAlign=middle;spacingTop=-1;spacingLeft=3;spacingRight=3;rotatable=0;labelPosition=right;points=[];portConstraint=eastwest;strokeColor=inherit;" vertex="1" parent="nIE0M11MLEUNFB4apL_E-90">
          <mxGeometry y="44" width="160" height="8" as="geometry" />
        </mxCell>
        <mxCell id="nIE0M11MLEUNFB4apL_E-93" value="+ method(type): type" style="text;strokeColor=none;fillColor=none;align=left;verticalAlign=top;spacingLeft=4;spacingRight=4;overflow=hidden;rotatable=0;points=[[0,0.5],[1,0.5]];portConstraint=eastwest;whiteSpace=wrap;html=1;" vertex="1" parent="nIE0M11MLEUNFB4apL_E-90">
          <mxGeometry y="52" width="160" height="26" as="geometry" />
        </mxCell>
        <mxCell id="nIE0M11MLEUNFB4apL_E-94" value="" style="endArrow=open;endFill=1;endSize=12;html=1;rounded=0;exitX=0;exitY=0.5;exitDx=10;exitDy=0;entryX=0.5;entryY=0.956;entryDx=0;entryDy=0;entryPerimeter=0;exitPerimeter=0;" edge="1" parent="1" source="nIE0M11MLEUNFB4apL_E-84">
          <mxGeometry width="160" relative="1" as="geometry">
            <mxPoint x="1340" y="-200" as="sourcePoint" />
            <mxPoint x="1340" y="-340" as="targetPoint" />
          </mxGeometry>
        </mxCell>
        <mxCell id="nIE0M11MLEUNFB4apL_E-95" value="" style="endArrow=diamondThin;endFill=1;endSize=24;html=1;rounded=0;entryX=0.536;entryY=-0.013;entryDx=0;entryDy=0;entryPerimeter=0;exitX=0.533;exitY=0.985;exitDx=0;exitDy=0;exitPerimeter=0;" edge="1" parent="1">
          <mxGeometry width="160" relative="1" as="geometry">
            <mxPoint x="1559.2600000000002" y="-276.03999999999996" as="sourcePoint" />
            <mxPoint x="1559.92" y="-181.76800000000003" as="targetPoint" />
          </mxGeometry>
        </mxCell>
        <mxCell id="nIE0M11MLEUNFB4apL_E-96" value="ProjectTileProperty" style="swimlane;fontStyle=1;align=center;verticalAlign=top;childLayout=stackLayout;horizontal=1;startSize=26;horizontalStack=0;resizeParent=1;resizeParentMax=0;resizeLast=0;collapsible=1;marginBottom=0;whiteSpace=wrap;html=1;fillColor=#60a917;strokeColor=#2D7600;fontColor=#ffffff;" vertex="1" parent="1">
          <mxGeometry x="890" y="-180" width="160" height="86" as="geometry">
            <mxRectangle x="820" y="385.5" width="100" height="30" as="alternateBounds" />
          </mxGeometry>
        </mxCell>
        <mxCell id="nIE0M11MLEUNFB4apL_E-97" value="+ field: type" style="text;strokeColor=none;fillColor=none;align=left;verticalAlign=top;spacingLeft=4;spacingRight=4;overflow=hidden;rotatable=0;points=[[0,0.5],[1,0.5]];portConstraint=eastwest;whiteSpace=wrap;html=1;" vertex="1" parent="nIE0M11MLEUNFB4apL_E-96">
          <mxGeometry y="26" width="160" height="26" as="geometry" />
        </mxCell>
        <mxCell id="nIE0M11MLEUNFB4apL_E-98" value="" style="line;strokeWidth=1;fillColor=none;align=left;verticalAlign=middle;spacingTop=-1;spacingLeft=3;spacingRight=3;rotatable=0;labelPosition=right;points=[];portConstraint=eastwest;strokeColor=inherit;" vertex="1" parent="nIE0M11MLEUNFB4apL_E-96">
          <mxGeometry y="52" width="160" height="8" as="geometry" />
        </mxCell>
        <mxCell id="nIE0M11MLEUNFB4apL_E-99" value="+ method(type): type" style="text;strokeColor=none;fillColor=none;align=left;verticalAlign=top;spacingLeft=4;spacingRight=4;overflow=hidden;rotatable=0;points=[[0,0.5],[1,0.5]];portConstraint=eastwest;whiteSpace=wrap;html=1;" vertex="1" parent="nIE0M11MLEUNFB4apL_E-96">
          <mxGeometry y="60" width="160" height="26" as="geometry" />
        </mxCell>
        <mxCell id="nIE0M11MLEUNFB4apL_E-101" value="" style="endArrow=diamondThin;endFill=1;endSize=24;html=1;rounded=0;entryX=0.044;entryY=0.685;entryDx=0;entryDy=0;entryPerimeter=0;exitX=0.998;exitY=0.788;exitDx=0;exitDy=0;exitPerimeter=0;" edge="1" parent="1" source="nIE0M11MLEUNFB4apL_E-97" target="nIE0M11MLEUNFB4apL_E-84">
          <mxGeometry width="160" relative="1" as="geometry">
            <mxPoint x="1569.2600000000002" y="-266.03999999999996" as="sourcePoint" />
            <mxPoint x="1569.92" y="-171.76800000000003" as="targetPoint" />
          </mxGeometry>
        </mxCell>
        <mxCell id="nIE0M11MLEUNFB4apL_E-102" value="" style="endArrow=open;endSize=12;dashed=1;html=1;rounded=0;exitX=0.036;exitY=0.82;exitDx=0;exitDy=0;entryX=0.998;entryY=0.172;entryDx=0;entryDy=0;entryPerimeter=0;exitPerimeter=0;" edge="1" parent="1" source="nIE0M11MLEUNFB4apL_E-84" target="nIE0M11MLEUNFB4apL_E-72">
          <mxGeometry width="160" relative="1" as="geometry">
            <mxPoint x="1471" y="175" as="sourcePoint" />
            <mxPoint x="978" y="118" as="targetPoint" />
          </mxGeometry>
        </mxCell>
        <mxCell id="nIE0M11MLEUNFB4apL_E-103" value="" style="endArrow=open;endSize=12;dashed=1;html=1;rounded=0;exitX=0.036;exitY=0.942;exitDx=0;exitDy=0;entryX=0.5;entryY=0;entryDx=0;entryDy=0;exitPerimeter=0;" edge="1" parent="1" source="nIE0M11MLEUNFB4apL_E-84" target="nIE0M11MLEUNFB4apL_E-61">
          <mxGeometry width="160" relative="1" as="geometry">
            <mxPoint x="1468" y="-288" as="sourcePoint" />
            <mxPoint x="1060" y="45" as="targetPoint" />
          </mxGeometry>
        </mxCell>
        <mxCell id="nIE0M11MLEUNFB4apL_E-104" value="&lt;span style=&quot;font-weight: 400;&quot;&gt;EnemyController&lt;/span&gt;" style="swimlane;fontStyle=1;align=center;verticalAlign=top;childLayout=stackLayout;horizontal=1;startSize=26;horizontalStack=0;resizeParent=1;resizeParentMax=0;resizeLast=0;collapsible=1;marginBottom=0;whiteSpace=wrap;html=1;fillColor=#60a917;fontColor=#ffffff;strokeColor=#2D7600;" vertex="1" parent="1">
          <mxGeometry x="1490" y="170" width="160" height="52" as="geometry" />
        </mxCell>
        <mxCell id="nIE0M11MLEUNFB4apL_E-105" value="+ field: type" style="text;strokeColor=none;fillColor=none;align=left;verticalAlign=top;spacingLeft=4;spacingRight=4;overflow=hidden;rotatable=0;points=[[0,0.5],[1,0.5]];portConstraint=eastwest;whiteSpace=wrap;html=1;" vertex="1" parent="nIE0M11MLEUNFB4apL_E-104">
          <mxGeometry y="26" width="160" height="18" as="geometry" />
        </mxCell>
        <mxCell id="nIE0M11MLEUNFB4apL_E-106" value="" style="line;strokeWidth=1;fillColor=none;align=left;verticalAlign=middle;spacingTop=-1;spacingLeft=3;spacingRight=3;rotatable=0;labelPosition=right;points=[];portConstraint=eastwest;strokeColor=inherit;" vertex="1" parent="nIE0M11MLEUNFB4apL_E-104">
          <mxGeometry y="44" width="160" height="8" as="geometry" />
        </mxCell>
        <mxCell id="nIE0M11MLEUNFB4apL_E-107" value="AIType" style="swimlane;fontStyle=1;align=center;verticalAlign=top;childLayout=stackLayout;horizontal=1;startSize=26;horizontalStack=0;resizeParent=1;resizeParentMax=0;resizeLast=0;collapsible=1;marginBottom=0;whiteSpace=wrap;html=1;fillColor=#60a917;strokeColor=#2D7600;fontColor=#ffffff;" vertex="1" parent="1">
          <mxGeometry x="1750" y="162" width="160" height="60" as="geometry">
            <mxRectangle x="820" y="385.5" width="100" height="30" as="alternateBounds" />
          </mxGeometry>
        </mxCell>
        <mxCell id="nIE0M11MLEUNFB4apL_E-108" value="+ field: type" style="text;strokeColor=none;fillColor=none;align=left;verticalAlign=top;spacingLeft=4;spacingRight=4;overflow=hidden;rotatable=0;points=[[0,0.5],[1,0.5]];portConstraint=eastwest;whiteSpace=wrap;html=1;" vertex="1" parent="nIE0M11MLEUNFB4apL_E-107">
          <mxGeometry y="26" width="160" height="26" as="geometry" />
        </mxCell>
        <mxCell id="nIE0M11MLEUNFB4apL_E-109" value="" style="line;strokeWidth=1;fillColor=none;align=left;verticalAlign=middle;spacingTop=-1;spacingLeft=3;spacingRight=3;rotatable=0;labelPosition=right;points=[];portConstraint=eastwest;strokeColor=inherit;" vertex="1" parent="nIE0M11MLEUNFB4apL_E-107">
          <mxGeometry y="52" width="160" height="8" as="geometry" />
        </mxCell>
        <mxCell id="nIE0M11MLEUNFB4apL_E-111" value="" style="endArrow=open;endSize=12;dashed=1;html=1;rounded=0;exitX=1;exitY=0.111;exitDx=0;exitDy=0;entryX=-0.019;entryY=1.038;entryDx=0;entryDy=0;entryPerimeter=0;exitPerimeter=0;" edge="1" parent="1" source="nIE0M11MLEUNFB4apL_E-105" target="nIE0M11MLEUNFB4apL_E-108">
          <mxGeometry width="160" relative="1" as="geometry">
            <mxPoint x="1690" y="196.5" as="sourcePoint" />
            <mxPoint x="1779" y="195.5" as="targetPoint" />
          </mxGeometry>
        </mxCell>
        <mxCell id="nIE0M11MLEUNFB4apL_E-112" value="&lt;span style=&quot;font-weight: 400; text-align: left;&quot;&gt;EnemyCareer&lt;/span&gt;" style="swimlane;fontStyle=1;align=center;verticalAlign=top;childLayout=stackLayout;horizontal=1;startSize=26;horizontalStack=0;resizeParent=1;resizeParentMax=0;resizeLast=0;collapsible=1;marginBottom=0;whiteSpace=wrap;html=1;fillColor=#60a917;strokeColor=#2D7600;fontColor=#ffffff;" vertex="1" parent="1">
          <mxGeometry x="1750" y="57" width="160" height="60" as="geometry">
            <mxRectangle x="820" y="385.5" width="100" height="30" as="alternateBounds" />
          </mxGeometry>
        </mxCell>
        <mxCell id="nIE0M11MLEUNFB4apL_E-114" value="" style="line;strokeWidth=1;fillColor=none;align=left;verticalAlign=middle;spacingTop=-1;spacingLeft=3;spacingRight=3;rotatable=0;labelPosition=right;points=[];portConstraint=eastwest;strokeColor=inherit;" vertex="1" parent="nIE0M11MLEUNFB4apL_E-112">
          <mxGeometry y="26" width="160" height="8" as="geometry" />
        </mxCell>
        <mxCell id="nIE0M11MLEUNFB4apL_E-115" value="+ method(type): type" style="text;strokeColor=none;fillColor=none;align=left;verticalAlign=top;spacingLeft=4;spacingRight=4;overflow=hidden;rotatable=0;points=[[0,0.5],[1,0.5]];portConstraint=eastwest;whiteSpace=wrap;html=1;" vertex="1" parent="nIE0M11MLEUNFB4apL_E-112">
          <mxGeometry y="34" width="160" height="26" as="geometry" />
        </mxCell>
        <mxCell id="nIE0M11MLEUNFB4apL_E-116" value="" style="endArrow=open;endSize=12;dashed=1;html=1;rounded=0;exitX=1;exitY=0.5;exitDx=0;exitDy=0;entryX=0;entryY=0.75;entryDx=0;entryDy=0;" edge="1" parent="1" source="nIE0M11MLEUNFB4apL_E-104" target="nIE0M11MLEUNFB4apL_E-112">
          <mxGeometry width="160" relative="1" as="geometry">
            <mxPoint x="1660" y="208" as="sourcePoint" />
            <mxPoint x="1757" y="225" as="targetPoint" />
          </mxGeometry>
        </mxCell>
        <mxCell id="nIE0M11MLEUNFB4apL_E-117" value="" style="endArrow=open;endSize=12;dashed=1;html=1;rounded=0;entryX=0;entryY=0.5;entryDx=0;entryDy=0;exitX=1;exitY=0.5;exitDx=0;exitDy=0;" edge="1" parent="1" source="nIE0M11MLEUNFB4apL_E-62" target="nIE0M11MLEUNFB4apL_E-51">
          <mxGeometry width="160" relative="1" as="geometry">
            <mxPoint x="1240" y="365" as="sourcePoint" />
            <mxPoint x="972" y="284" as="targetPoint" />
          </mxGeometry>
        </mxCell>
      </root>
    </mxGraphModel>
  </diagram>
</mxfile>
